<mxfile host="app.diagrams.net" modified="2023-06-05T08:28:29.654Z" agent="Mozilla/5.0 (Windows NT 10.0; Win64; x64) AppleWebKit/537.36 (KHTML, like Gecko) Chrome/113.0.0.0 Safari/537.36" etag="bpki5Mci9yjOUh5sy2cc" version="21.3.3" type="device">
  <diagram name="Pagina-1" id="grErAsrfBBSxMngExE60">
    <mxGraphModel dx="1877" dy="573" grid="1" gridSize="10" guides="1" tooltips="1" connect="1" arrows="1" fold="1" page="1" pageScale="1" pageWidth="827" pageHeight="1169" math="0" shadow="0">
      <root>
        <mxCell id="0" />
        <mxCell id="1" parent="0" />
        <mxCell id="UZsWOOpMYewdZIlmZ_ba-13" value="" style="rounded=0;whiteSpace=wrap;html=1;" parent="1" vertex="1">
          <mxGeometry x="-176" y="830" width="240" height="40" as="geometry" />
        </mxCell>
        <mxCell id="UZsWOOpMYewdZIlmZ_ba-14" value="" style="rounded=0;whiteSpace=wrap;html=1;" parent="1" vertex="1">
          <mxGeometry x="-176" y="870" width="240" height="30" as="geometry" />
        </mxCell>
        <mxCell id="UZsWOOpMYewdZIlmZ_ba-15" value="&lt;font style=&quot;font-size: 17px;&quot;&gt;Charmander&lt;/font&gt;" style="text;html=1;strokeColor=none;fillColor=none;align=center;verticalAlign=middle;whiteSpace=wrap;rounded=0;" parent="1" vertex="1">
          <mxGeometry x="-176" y="835" width="100" height="30" as="geometry" />
        </mxCell>
        <mxCell id="UZsWOOpMYewdZIlmZ_ba-16" value="" style="rounded=0;whiteSpace=wrap;html=1;" parent="1" vertex="1">
          <mxGeometry x="-176" y="900" width="240" height="50" as="geometry" />
        </mxCell>
        <mxCell id="UZsWOOpMYewdZIlmZ_ba-17" value="Methods" style="text;html=1;strokeColor=none;fillColor=none;align=center;verticalAlign=middle;whiteSpace=wrap;rounded=0;" parent="1" vertex="1">
          <mxGeometry x="-176" y="870" width="60" height="30" as="geometry" />
        </mxCell>
        <mxCell id="UZsWOOpMYewdZIlmZ_ba-18" value="+ Class Charmander" style="text;html=1;strokeColor=none;fillColor=none;align=left;verticalAlign=middle;whiteSpace=wrap;rounded=0;" parent="1" vertex="1">
          <mxGeometry x="-175" y="900" width="148.5" height="30" as="geometry" />
        </mxCell>
        <mxCell id="UZsWOOpMYewdZIlmZ_ba-22" value="&lt;div style=&quot;&quot;&gt;&lt;span style=&quot;background-color: initial;&quot;&gt;-battleCry()&lt;/span&gt;&lt;br&gt;&lt;/div&gt;" style="text;html=1;strokeColor=none;fillColor=none;align=left;verticalAlign=middle;whiteSpace=wrap;rounded=0;" parent="1" vertex="1">
          <mxGeometry x="-175" y="920" width="110" height="30" as="geometry" />
        </mxCell>
        <mxCell id="UZsWOOpMYewdZIlmZ_ba-23" value="" style="rounded=0;whiteSpace=wrap;html=1;" parent="1" vertex="1">
          <mxGeometry x="-166" y="440" width="240" height="40" as="geometry" />
        </mxCell>
        <mxCell id="UZsWOOpMYewdZIlmZ_ba-24" value="" style="rounded=0;whiteSpace=wrap;html=1;" parent="1" vertex="1">
          <mxGeometry x="-166" y="480" width="240" height="30" as="geometry" />
        </mxCell>
        <mxCell id="UZsWOOpMYewdZIlmZ_ba-25" value="&lt;span style=&quot;font-size: 17px;&quot;&gt;Pokeball&lt;/span&gt;" style="text;html=1;strokeColor=none;fillColor=none;align=center;verticalAlign=middle;whiteSpace=wrap;rounded=0;" parent="1" vertex="1">
          <mxGeometry x="-175" y="445" width="100" height="30" as="geometry" />
        </mxCell>
        <mxCell id="UZsWOOpMYewdZIlmZ_ba-26" value="" style="rounded=0;whiteSpace=wrap;html=1;" parent="1" vertex="1">
          <mxGeometry x="-166" y="510" width="240" height="50" as="geometry" />
        </mxCell>
        <mxCell id="UZsWOOpMYewdZIlmZ_ba-27" value="Fields" style="text;html=1;strokeColor=none;fillColor=none;align=center;verticalAlign=middle;whiteSpace=wrap;rounded=0;" parent="1" vertex="1">
          <mxGeometry x="-166" y="480" width="60" height="30" as="geometry" />
        </mxCell>
        <mxCell id="UZsWOOpMYewdZIlmZ_ba-28" value="+ Class Pokemon&lt;br&gt;+ Class Pokeball" style="text;html=1;strokeColor=none;fillColor=none;align=left;verticalAlign=middle;whiteSpace=wrap;rounded=0;" parent="1" vertex="1">
          <mxGeometry x="-161" y="520" width="110" height="30" as="geometry" />
        </mxCell>
        <mxCell id="UZsWOOpMYewdZIlmZ_ba-29" value="" style="rounded=0;whiteSpace=wrap;html=1;" parent="1" vertex="1">
          <mxGeometry x="-168.5" y="290" width="240" height="40" as="geometry" />
        </mxCell>
        <mxCell id="UZsWOOpMYewdZIlmZ_ba-30" value="" style="rounded=0;whiteSpace=wrap;html=1;" parent="1" vertex="1">
          <mxGeometry x="-168.5" y="330" width="240" height="30" as="geometry" />
        </mxCell>
        <mxCell id="UZsWOOpMYewdZIlmZ_ba-31" value="&lt;font style=&quot;font-size: 17px;&quot;&gt;Trainer&lt;/font&gt;" style="text;html=1;strokeColor=none;fillColor=none;align=center;verticalAlign=middle;whiteSpace=wrap;rounded=0;" parent="1" vertex="1">
          <mxGeometry x="-176" y="295" width="100" height="30" as="geometry" />
        </mxCell>
        <mxCell id="UZsWOOpMYewdZIlmZ_ba-32" value="" style="rounded=0;whiteSpace=wrap;html=1;" parent="1" vertex="1">
          <mxGeometry x="-168.5" y="360" width="240" height="50" as="geometry" />
        </mxCell>
        <mxCell id="UZsWOOpMYewdZIlmZ_ba-33" value="Fields" style="text;html=1;strokeColor=none;fillColor=none;align=center;verticalAlign=middle;whiteSpace=wrap;rounded=0;" parent="1" vertex="1">
          <mxGeometry x="-166" y="330" width="60" height="30" as="geometry" />
        </mxCell>
        <mxCell id="UZsWOOpMYewdZIlmZ_ba-34" value="-String Name&lt;br&gt;-Class List belt &amp;lt;Pokeballs&amp;gt;" style="text;html=1;strokeColor=none;fillColor=none;align=left;verticalAlign=middle;whiteSpace=wrap;rounded=0;" parent="1" vertex="1">
          <mxGeometry x="-161" y="380" width="185" height="20" as="geometry" />
        </mxCell>
        <mxCell id="UZsWOOpMYewdZIlmZ_ba-35" value="" style="rounded=0;whiteSpace=wrap;html=1;" parent="1" vertex="1">
          <mxGeometry x="-168.5" y="150" width="240" height="40" as="geometry" />
        </mxCell>
        <mxCell id="UZsWOOpMYewdZIlmZ_ba-36" value="" style="rounded=0;whiteSpace=wrap;html=1;" parent="1" vertex="1">
          <mxGeometry x="-168.5" y="190" width="240" height="30" as="geometry" />
        </mxCell>
        <mxCell id="UZsWOOpMYewdZIlmZ_ba-37" value="&lt;font style=&quot;font-size: 17px;&quot;&gt;Main&lt;/font&gt;" style="text;html=1;strokeColor=none;fillColor=none;align=center;verticalAlign=middle;whiteSpace=wrap;rounded=0;" parent="1" vertex="1">
          <mxGeometry x="-183.5" y="155" width="100" height="30" as="geometry" />
        </mxCell>
        <mxCell id="UZsWOOpMYewdZIlmZ_ba-38" value="" style="rounded=0;whiteSpace=wrap;html=1;" parent="1" vertex="1">
          <mxGeometry x="-168.5" y="220" width="240" height="50" as="geometry" />
        </mxCell>
        <mxCell id="UZsWOOpMYewdZIlmZ_ba-39" value="Fields" style="text;html=1;strokeColor=none;fillColor=none;align=center;verticalAlign=middle;whiteSpace=wrap;rounded=0;" parent="1" vertex="1">
          <mxGeometry x="-178.5" y="190" width="60" height="30" as="geometry" />
        </mxCell>
        <mxCell id="UZsWOOpMYewdZIlmZ_ba-40" value="-Class Trainer trainer1&lt;br&gt;-Class Trainer trainer2" style="text;html=1;strokeColor=none;fillColor=none;align=left;verticalAlign=middle;whiteSpace=wrap;rounded=0;" parent="1" vertex="1">
          <mxGeometry x="-168.5" y="230" width="225" height="30" as="geometry" />
        </mxCell>
        <mxCell id="UZsWOOpMYewdZIlmZ_ba-43" value="" style="rounded=0;whiteSpace=wrap;html=1;" parent="1" vertex="1">
          <mxGeometry x="-166" y="585" width="240" height="40" as="geometry" />
        </mxCell>
        <mxCell id="UZsWOOpMYewdZIlmZ_ba-44" value="" style="rounded=0;whiteSpace=wrap;html=1;" parent="1" vertex="1">
          <mxGeometry x="-166" y="625" width="240" height="30" as="geometry" />
        </mxCell>
        <mxCell id="UZsWOOpMYewdZIlmZ_ba-45" value="&lt;font style=&quot;font-size: 17px;&quot;&gt;Pokemon&lt;/font&gt;" style="text;html=1;strokeColor=none;fillColor=none;align=center;verticalAlign=middle;whiteSpace=wrap;rounded=0;" parent="1" vertex="1">
          <mxGeometry x="-166" y="590" width="100" height="30" as="geometry" />
        </mxCell>
        <mxCell id="UZsWOOpMYewdZIlmZ_ba-46" value="" style="rounded=0;whiteSpace=wrap;html=1;" parent="1" vertex="1">
          <mxGeometry x="-166" y="655" width="240" height="50" as="geometry" />
        </mxCell>
        <mxCell id="UZsWOOpMYewdZIlmZ_ba-47" value="Fields" style="text;html=1;strokeColor=none;fillColor=none;align=center;verticalAlign=middle;whiteSpace=wrap;rounded=0;" parent="1" vertex="1">
          <mxGeometry x="-166" y="625" width="60" height="30" as="geometry" />
        </mxCell>
        <mxCell id="UZsWOOpMYewdZIlmZ_ba-48" value="+String Type&lt;br&gt;+String Name&lt;br&gt;+String Weakness" style="text;html=1;strokeColor=none;fillColor=none;align=left;verticalAlign=middle;whiteSpace=wrap;rounded=0;" parent="1" vertex="1">
          <mxGeometry x="-161" y="665" width="110" height="30" as="geometry" />
        </mxCell>
        <mxCell id="UZsWOOpMYewdZIlmZ_ba-49" value="" style="rounded=0;whiteSpace=wrap;html=1;" parent="1" vertex="1">
          <mxGeometry x="-166" y="705" width="240" height="30" as="geometry" />
        </mxCell>
        <mxCell id="UZsWOOpMYewdZIlmZ_ba-50" value="Methods" style="text;html=1;strokeColor=none;fillColor=none;align=center;verticalAlign=middle;whiteSpace=wrap;rounded=0;" parent="1" vertex="1">
          <mxGeometry x="-166" y="705" width="60" height="30" as="geometry" />
        </mxCell>
        <mxCell id="UZsWOOpMYewdZIlmZ_ba-51" value="" style="rounded=0;whiteSpace=wrap;html=1;" parent="1" vertex="1">
          <mxGeometry x="-166" y="735" width="240" height="30" as="geometry" />
        </mxCell>
        <mxCell id="UZsWOOpMYewdZIlmZ_ba-52" value="&lt;div style=&quot;&quot;&gt;&lt;span style=&quot;background-color: initial;&quot;&gt;-battleCry()&lt;/span&gt;&lt;br&gt;&lt;/div&gt;" style="text;html=1;strokeColor=none;fillColor=none;align=left;verticalAlign=middle;whiteSpace=wrap;rounded=0;" parent="1" vertex="1">
          <mxGeometry x="-166" y="735" width="110" height="30" as="geometry" />
        </mxCell>
        <mxCell id="UZsWOOpMYewdZIlmZ_ba-53" value="" style="rounded=0;whiteSpace=wrap;html=1;" parent="1" vertex="1">
          <mxGeometry x="-473.5" y="830" width="240" height="40" as="geometry" />
        </mxCell>
        <mxCell id="UZsWOOpMYewdZIlmZ_ba-55" value="&lt;font style=&quot;font-size: 17px;&quot;&gt;Bulbasaur&lt;/font&gt;" style="text;html=1;strokeColor=none;fillColor=none;align=center;verticalAlign=middle;whiteSpace=wrap;rounded=0;" parent="1" vertex="1">
          <mxGeometry x="-473.5" y="835" width="100" height="30" as="geometry" />
        </mxCell>
        <mxCell id="UZsWOOpMYewdZIlmZ_ba-63" value="" style="rounded=0;whiteSpace=wrap;html=1;" parent="1" vertex="1">
          <mxGeometry x="96.5" y="830" width="240" height="40" as="geometry" />
        </mxCell>
        <mxCell id="UZsWOOpMYewdZIlmZ_ba-65" value="&lt;font style=&quot;font-size: 17px;&quot;&gt;Squirtle&lt;/font&gt;" style="text;html=1;strokeColor=none;fillColor=none;align=center;verticalAlign=middle;whiteSpace=wrap;rounded=0;" parent="1" vertex="1">
          <mxGeometry x="96.5" y="835" width="100" height="30" as="geometry" />
        </mxCell>
        <mxCell id="UZsWOOpMYewdZIlmZ_ba-78" value="" style="endArrow=diamondThin;endFill=1;endSize=24;html=1;rounded=0;exitX=0.5;exitY=0;exitDx=0;exitDy=0;entryX=0.5;entryY=1;entryDx=0;entryDy=0;" parent="1" source="UZsWOOpMYewdZIlmZ_ba-43" target="UZsWOOpMYewdZIlmZ_ba-26" edge="1">
          <mxGeometry width="160" relative="1" as="geometry">
            <mxPoint x="-250" y="670" as="sourcePoint" />
            <mxPoint x="-90" y="670" as="targetPoint" />
          </mxGeometry>
        </mxCell>
        <mxCell id="UZsWOOpMYewdZIlmZ_ba-82" value="" style="endArrow=diamondThin;endFill=1;endSize=24;html=1;rounded=0;exitX=0.5;exitY=0;exitDx=0;exitDy=0;entryX=0.5;entryY=1;entryDx=0;entryDy=0;" parent="1" source="UZsWOOpMYewdZIlmZ_ba-23" target="UZsWOOpMYewdZIlmZ_ba-32" edge="1">
          <mxGeometry width="160" relative="1" as="geometry">
            <mxPoint x="-250" y="670" as="sourcePoint" />
            <mxPoint x="-90" y="670" as="targetPoint" />
          </mxGeometry>
        </mxCell>
        <mxCell id="UZsWOOpMYewdZIlmZ_ba-83" value="" style="endArrow=diamondThin;endFill=1;endSize=24;html=1;rounded=0;exitX=0.5;exitY=0;exitDx=0;exitDy=0;entryX=0.5;entryY=1;entryDx=0;entryDy=0;" parent="1" source="UZsWOOpMYewdZIlmZ_ba-29" target="UZsWOOpMYewdZIlmZ_ba-38" edge="1">
          <mxGeometry width="160" relative="1" as="geometry">
            <mxPoint x="-250" y="310" as="sourcePoint" />
            <mxPoint x="-90" y="310" as="targetPoint" />
          </mxGeometry>
        </mxCell>
        <mxCell id="l_NsDvTuU-RF8PT2cMgP-1" value="" style="endArrow=block;dashed=1;endFill=0;endSize=12;html=1;rounded=0;exitX=0.5;exitY=0;exitDx=0;exitDy=0;" parent="1" source="UZsWOOpMYewdZIlmZ_ba-53" target="UZsWOOpMYewdZIlmZ_ba-52" edge="1">
          <mxGeometry width="160" relative="1" as="geometry">
            <mxPoint x="-280" y="790" as="sourcePoint" />
            <mxPoint x="-120" y="790" as="targetPoint" />
          </mxGeometry>
        </mxCell>
        <mxCell id="l_NsDvTuU-RF8PT2cMgP-2" value="" style="endArrow=block;dashed=1;endFill=0;endSize=12;html=1;rounded=0;exitX=0.5;exitY=0;exitDx=0;exitDy=0;entryX=1;entryY=1;entryDx=0;entryDy=0;" parent="1" source="UZsWOOpMYewdZIlmZ_ba-13" target="UZsWOOpMYewdZIlmZ_ba-52" edge="1">
          <mxGeometry width="160" relative="1" as="geometry">
            <mxPoint x="-280" y="790" as="sourcePoint" />
            <mxPoint x="-120" y="790" as="targetPoint" />
          </mxGeometry>
        </mxCell>
        <mxCell id="l_NsDvTuU-RF8PT2cMgP-4" value="" style="endArrow=block;dashed=1;endFill=0;endSize=12;html=1;rounded=0;exitX=0.5;exitY=0;exitDx=0;exitDy=0;entryX=1;entryY=1;entryDx=0;entryDy=0;" parent="1" source="UZsWOOpMYewdZIlmZ_ba-63" target="UZsWOOpMYewdZIlmZ_ba-51" edge="1">
          <mxGeometry width="160" relative="1" as="geometry">
            <mxPoint x="-30" y="790" as="sourcePoint" />
            <mxPoint x="130" y="790" as="targetPoint" />
          </mxGeometry>
        </mxCell>
        <mxCell id="l_NsDvTuU-RF8PT2cMgP-6" value="" style="rounded=0;whiteSpace=wrap;html=1;" parent="1" vertex="1">
          <mxGeometry x="97.5" y="870" width="240" height="50" as="geometry" />
        </mxCell>
        <mxCell id="l_NsDvTuU-RF8PT2cMgP-7" value="+ Class Squirtle" style="text;html=1;strokeColor=none;fillColor=none;align=left;verticalAlign=middle;whiteSpace=wrap;rounded=0;" parent="1" vertex="1">
          <mxGeometry x="96.5" y="870" width="148.5" height="30" as="geometry" />
        </mxCell>
        <mxCell id="l_NsDvTuU-RF8PT2cMgP-8" value="&lt;div style=&quot;&quot;&gt;&lt;span style=&quot;background-color: initial;&quot;&gt;-battleCry()&lt;/span&gt;&lt;br&gt;&lt;/div&gt;" style="text;html=1;strokeColor=none;fillColor=none;align=left;verticalAlign=middle;whiteSpace=wrap;rounded=0;" parent="1" vertex="1">
          <mxGeometry x="97.5" y="890" width="110" height="30" as="geometry" />
        </mxCell>
        <mxCell id="l_NsDvTuU-RF8PT2cMgP-10" value="" style="rounded=0;whiteSpace=wrap;html=1;" parent="1" vertex="1">
          <mxGeometry x="-473.5" y="870" width="240" height="50" as="geometry" />
        </mxCell>
        <mxCell id="l_NsDvTuU-RF8PT2cMgP-11" value="+ Class Bulbasaur" style="text;html=1;strokeColor=none;fillColor=none;align=left;verticalAlign=middle;whiteSpace=wrap;rounded=0;" parent="1" vertex="1">
          <mxGeometry x="-472.5" y="870" width="148.5" height="30" as="geometry" />
        </mxCell>
        <mxCell id="l_NsDvTuU-RF8PT2cMgP-12" value="&lt;div style=&quot;&quot;&gt;&lt;span style=&quot;background-color: initial;&quot;&gt;-battleCry()&lt;/span&gt;&lt;br&gt;&lt;/div&gt;" style="text;html=1;strokeColor=none;fillColor=none;align=left;verticalAlign=middle;whiteSpace=wrap;rounded=0;" parent="1" vertex="1">
          <mxGeometry x="-472.5" y="890" width="110" height="30" as="geometry" />
        </mxCell>
        <mxCell id="1Ln6desTHSJsqBV75mFK-1" value="Use" style="endArrow=open;endSize=12;dashed=1;html=1;rounded=0;" edge="1" parent="1">
          <mxGeometry width="160" relative="1" as="geometry">
            <mxPoint x="-140" y="950" as="sourcePoint" />
            <mxPoint x="20" y="950" as="targetPoint" />
            <Array as="points">
              <mxPoint x="-70" y="790" />
            </Array>
          </mxGeometry>
        </mxCell>
      </root>
    </mxGraphModel>
  </diagram>
</mxfile>
